<svg preserveAspectRatio="none" width="100%" height="100%" overflow="visible" style="display: block;" viewBox="0 0 36.3116 76.7501" fill="none" xmlns="http://www.w3.org/2000/svg">
<path id="Vector 1" d="M0.661254 75.2553C0.249955 75.3043 -0.0437024 75.6775 0.0053516 76.0888C0.0544056 76.5001 0.427595 76.7938 0.838894 76.7447L0.750074 76L0.661254 75.2553ZM22.7501 0L22.2624 8.64651L29.9943 4.74563L22.7501 0ZM0.750074 76L0.838894 76.7447C9.68 75.6903 22.8404 71.9999 30.4106 61.4298C38.0249 50.7981 39.789 33.5025 26.4693 5.70724L25.793 6.03135L25.1166 6.35546C38.3286 33.926 36.3445 50.5683 29.1911 60.5564C21.9936 70.606 9.36677 74.217 0.661254 75.2553L0.750074 76Z" fill="var(--stroke-0, #A1AAB1)"/>
</svg>
